<mxfile host="app.diagrams.net" agent="Mozilla/5.0 (Macintosh; Intel Mac OS X 10_15_7) AppleWebKit/537.36 (KHTML, like Gecko) Chrome/133.0.0.0 Safari/537.36" version="26.0.16">
  <diagram name="Page-1" id="LDcqTAI_yxdlEeNMmcBz">
    <mxGraphModel grid="1" page="1" gridSize="10" guides="1" tooltips="1" connect="1" arrows="1" fold="1" pageScale="1" pageWidth="827" pageHeight="1169" math="0" shadow="0">
      <root>
        <mxCell id="0" />
        <mxCell id="1" parent="0" />
        <mxCell id="svEXcFK-cAXkZFh7GnPK-1" value="&lt;b&gt;Enterprise&lt;br&gt;Canonical Data Model&lt;/b&gt;" style="rounded=0;whiteSpace=wrap;html=1;fillColor=#dae8fc;strokeColor=#6c8ebf;" vertex="1" parent="1">
          <mxGeometry x="184" y="200" width="230" height="60" as="geometry" />
        </mxCell>
        <mxCell id="svEXcFK-cAXkZFh7GnPK-2" value="&lt;b&gt;HL7 v2 Identifiers&lt;/b&gt;" style="rounded=0;whiteSpace=wrap;html=1;fillColor=#dae8fc;strokeColor=#6c8ebf;" vertex="1" parent="1">
          <mxGeometry x="184" y="40" width="230" height="60" as="geometry" />
        </mxCell>
        <mxCell id="svEXcFK-cAXkZFh7GnPK-4" value="" style="shape=flexArrow;endArrow=classic;html=1;rounded=0;" edge="1" parent="1">
          <mxGeometry width="50" height="50" relative="1" as="geometry">
            <mxPoint x="300" y="110" as="sourcePoint" />
            <mxPoint x="300" y="190" as="targetPoint" />
          </mxGeometry>
        </mxCell>
        <mxCell id="svEXcFK-cAXkZFh7GnPK-5" value="&lt;b&gt;Clinical Data Model&lt;/b&gt;" style="rounded=0;whiteSpace=wrap;html=1;fillColor=#d5e8d4;strokeColor=#82b366;" vertex="1" parent="1">
          <mxGeometry x="530" y="200" width="230" height="60" as="geometry" />
        </mxCell>
        <mxCell id="svEXcFK-cAXkZFh7GnPK-13" value="&lt;b&gt;PDF Attachments&lt;/b&gt;" style="rounded=0;whiteSpace=wrap;html=1;fillColor=#dae8fc;strokeColor=#6c8ebf;" vertex="1" parent="1">
          <mxGeometry x="540" y="350" width="230" height="60" as="geometry" />
        </mxCell>
        <mxCell id="svEXcFK-cAXkZFh7GnPK-17" value="&lt;b&gt;NHS Data Model and Dictionary&lt;/b&gt;" style="rounded=0;whiteSpace=wrap;html=1;fillColor=#dae8fc;strokeColor=#6c8ebf;" vertex="1" parent="1">
          <mxGeometry x="-150" y="40" width="230" height="60" as="geometry" />
        </mxCell>
        <mxCell id="svEXcFK-cAXkZFh7GnPK-18" value="" style="shape=flexArrow;endArrow=classic;html=1;rounded=0;" edge="1" parent="1">
          <mxGeometry width="50" height="50" relative="1" as="geometry">
            <mxPoint x="-30" y="110" as="sourcePoint" />
            <mxPoint x="170" y="230" as="targetPoint" />
            <Array as="points">
              <mxPoint x="-30" y="230" />
            </Array>
          </mxGeometry>
        </mxCell>
        <mxCell id="svEXcFK-cAXkZFh7GnPK-19" value="" style="shape=flexArrow;endArrow=classic;html=1;rounded=0;" edge="1" parent="1">
          <mxGeometry width="50" height="50" relative="1" as="geometry">
            <mxPoint x="90" y="69.38" as="sourcePoint" />
            <mxPoint x="170" y="69.38" as="targetPoint" />
          </mxGeometry>
        </mxCell>
        <mxCell id="svEXcFK-cAXkZFh7GnPK-20" value="" style="shape=flexArrow;endArrow=classic;html=1;rounded=0;" edge="1" parent="1">
          <mxGeometry width="50" height="50" relative="1" as="geometry">
            <mxPoint x="654" y="270" as="sourcePoint" />
            <mxPoint x="654.37" y="340" as="targetPoint" />
          </mxGeometry>
        </mxCell>
        <mxCell id="svEXcFK-cAXkZFh7GnPK-21" value="" style="shape=flexArrow;endArrow=classic;html=1;rounded=0;dashed=1;" edge="1" parent="1">
          <mxGeometry width="50" height="50" relative="1" as="geometry">
            <mxPoint x="520" y="230" as="sourcePoint" />
            <mxPoint x="430" y="230" as="targetPoint" />
          </mxGeometry>
        </mxCell>
        <mxCell id="svEXcFK-cAXkZFh7GnPK-22" value="&lt;b&gt;Clinical Process Requirements&lt;/b&gt;" style="rounded=0;whiteSpace=wrap;html=1;fillColor=#dae8fc;strokeColor=#6c8ebf;" vertex="1" parent="1">
          <mxGeometry x="184" y="350" width="230" height="60" as="geometry" />
        </mxCell>
        <mxCell id="svEXcFK-cAXkZFh7GnPK-23" value="" style="shape=flexArrow;endArrow=classic;html=1;rounded=0;" edge="1" parent="1">
          <mxGeometry width="50" height="50" relative="1" as="geometry">
            <mxPoint x="298.38" y="340" as="sourcePoint" />
            <mxPoint x="298" y="270" as="targetPoint" />
          </mxGeometry>
        </mxCell>
        <mxCell id="svEXcFK-cAXkZFh7GnPK-24" value="Improvements" style="text;html=1;align=center;verticalAlign=middle;whiteSpace=wrap;rounded=0;" vertex="1" parent="1">
          <mxGeometry x="440" y="170" width="60" height="30" as="geometry" />
        </mxCell>
        <mxCell id="svEXcFK-cAXkZFh7GnPK-25" value="&lt;b&gt;SNOMED CT&lt;/b&gt;" style="rounded=0;whiteSpace=wrap;html=1;fillColor=#dae8fc;strokeColor=#6c8ebf;" vertex="1" parent="1">
          <mxGeometry x="-150" y="350" width="230" height="60" as="geometry" />
        </mxCell>
        <mxCell id="svEXcFK-cAXkZFh7GnPK-26" value="" style="shape=flexArrow;endArrow=classic;html=1;rounded=0;" edge="1" parent="1">
          <mxGeometry width="50" height="50" relative="1" as="geometry">
            <mxPoint x="-30" y="340" as="sourcePoint" />
            <mxPoint x="170" y="230" as="targetPoint" />
            <Array as="points">
              <mxPoint x="-30" y="230" />
            </Array>
          </mxGeometry>
        </mxCell>
      </root>
    </mxGraphModel>
  </diagram>
</mxfile>
